<svg width="125" height="33" viewBox="0 0 125 33" fill="none" xmlns="http://www.w3.org/2000/svg">
<path d="M16.9109 2.64893C6.6931 3.39207 0.594116 9.19575 0.594116 9.19575V30.3584H39.406V9.19575L16.9109 2.64893Z" fill="#E0A03D"/>
<path d="M19.6412 13.4541C22.0546 13.4541 24.0111 11.84 24.0111 9.84896C24.0111 7.85787 22.0546 6.24377 19.6412 6.24377C17.2277 6.24377 15.2712 7.85787 15.2712 9.84896C15.2712 11.84 17.2277 13.4541 19.6412 13.4541Z" fill="#F6E088"/>
<path d="M0.594116 24.4688V30.3583H7.73294C7.73294 27.1057 4.53677 24.4688 0.594116 24.4688Z" fill="#F6E088"/>
<path d="M34.2574 17.1571C34.2574 19.5029 36.5625 21.4046 39.406 21.4046V12.9095C36.5625 12.9095 34.2574 14.8112 34.2574 17.1571Z" fill="#F6E088"/>
<path d="M10.5743 21.0781C12.2366 21.0781 13.5842 19.9663 13.5842 18.5949C13.5842 17.2235 12.2366 16.1117 10.5743 16.1117C8.91192 16.1117 7.56433 17.2235 7.56433 18.5949C7.56433 19.9663 8.91192 21.0781 10.5743 21.0781Z" fill="#F6E088"/>
<path d="M25.0693 21.6007C21.2812 21.6007 18.2103 24.1342 18.2103 27.2594C18.2103 28.4035 18.6223 29.4681 19.33 30.3583H30.8086C31.5163 29.4681 31.9283 28.4035 31.9283 27.2594C31.9283 24.1341 28.8574 21.6007 25.0693 21.6007Z" fill="#F6E088"/>
<path d="M16.987 2.15149L16.8588 2.16083C11.4554 2.55381 7.205 4.35321 4.59078 5.79354C1.755 7.35601 0.209531 8.81349 0.145156 8.87479L0 9.01297V23.9789V30.8486H8.32695H19.0091H31.1295H40V21.8948V12.4195V8.84894L16.987 2.15149ZM1.18813 29.8684V24.981C4.32398 25.2149 6.82867 27.2813 7.11219 29.8684H1.18813ZM19.6603 29.8684C19.0995 29.0788 18.8044 28.1823 18.8044 27.2595C18.8044 24.4095 21.6148 22.091 25.0693 22.091C28.5238 22.091 31.3342 24.4096 31.3342 27.2595C31.3342 28.1824 31.0391 29.0788 30.4783 29.8684H19.6603ZM31.8191 29.8684C32.2811 29.0563 32.5223 28.1686 32.5223 27.2595C32.5223 23.8691 29.1789 21.1108 25.0693 21.1108C20.9597 21.1108 17.6163 23.8691 17.6163 27.2595C17.6163 28.1686 17.8575 29.0563 18.3195 29.8684H8.30437C8.015 26.7405 4.97945 24.2362 1.18813 23.9975V9.68593H7.72281V8.70573H2.02227C2.74164 8.15336 3.84336 7.38154 5.28453 6.59005C7.75664 5.23248 11.7599 3.53916 16.8355 3.14684L35.9362 8.70573H24.4063C23.8048 7.00268 21.897 5.75435 19.6411 5.75435C17.3852 5.75435 15.4773 7.00275 14.8759 8.70573H9.30703V9.68593H14.6825C14.6799 9.74026 14.6774 9.79453 14.6774 9.84938C14.6774 12.1074 16.9041 13.9444 19.6411 13.9444C22.378 13.9444 24.6048 12.1074 24.6048 9.84938C24.6048 9.7946 24.6024 9.74026 24.5997 9.68593H38.8119V12.445C35.9235 12.691 33.6634 14.7104 33.6634 17.1573C33.6634 19.6041 35.9235 21.6235 38.8119 21.8696V29.8685H31.8191V29.8684ZM23.4166 9.84925C23.4166 11.5667 21.723 12.9641 19.6411 12.9641C17.5592 12.9641 15.8655 11.5668 15.8655 9.84925C15.8655 8.13171 17.5592 6.73443 19.6411 6.73443C21.723 6.73449 23.4166 8.13177 23.4166 9.84925ZM38.8119 20.8829C36.5801 20.642 34.8515 19.063 34.8515 17.1573C34.8515 15.2515 36.5802 13.6725 38.8119 13.4317V20.8829Z" fill="#491E17"/>
<path d="M25.0693 19.1504V20.1306C29.8341 20.1306 33.7105 23.3286 33.7105 27.2596H34.8986C34.8986 22.7881 30.4893 19.1504 25.0693 19.1504Z" fill="#491E17"/>
<path d="M10.5742 15.6216C8.58693 15.6216 6.97021 16.9554 6.97021 18.5949C6.97021 20.2344 8.58693 21.5682 10.5742 21.5682C12.5615 21.5682 14.1782 20.2344 14.1782 18.5949C14.1782 16.9554 12.5615 15.6216 10.5742 15.6216ZM10.5742 20.5879C9.24209 20.5879 8.15834 19.6938 8.15834 18.5948C8.15834 17.4958 9.24209 16.6017 10.5742 16.6017C11.9063 16.6017 12.9901 17.4958 12.9901 18.5948C12.9901 19.6938 11.9064 20.5879 10.5742 20.5879Z" fill="#491E17"/>
<path d="M52.242 24.168C51.3833 24.168 50.6553 24.0233 50.058 23.734C49.4607 23.4353 48.952 23.0527 48.532 22.586L49.932 21.172C50.5947 21.9187 51.4113 22.292 52.382 22.292C52.9047 22.292 53.292 22.1847 53.544 21.97C53.796 21.7553 53.922 21.4707 53.922 21.116C53.922 20.8453 53.8473 20.6213 53.698 20.444C53.5487 20.2573 53.2453 20.1313 52.788 20.066L51.822 19.94C50.786 19.8093 50.0253 19.4967 49.54 19.002C49.064 18.5073 48.826 17.8493 48.826 17.028C48.826 16.5893 48.91 16.188 49.078 15.824C49.246 15.46 49.484 15.1473 49.792 14.886C50.1093 14.6247 50.492 14.424 50.94 14.284C51.3973 14.1347 51.9153 14.06 52.494 14.06C53.2313 14.06 53.88 14.1767 54.44 14.41C55 14.6433 55.4807 14.984 55.882 15.432L54.468 16.86C54.2347 16.5893 53.95 16.37 53.614 16.202C53.2873 16.0247 52.872 15.936 52.368 15.936C51.892 15.936 51.5373 16.02 51.304 16.188C51.0707 16.356 50.954 16.5893 50.954 16.888C50.954 17.224 51.0427 17.4667 51.22 17.616C51.4067 17.7653 51.7053 17.8727 52.116 17.938L53.082 18.092C54.09 18.2507 54.8367 18.5633 55.322 19.03C55.8073 19.4873 56.05 20.1407 56.05 20.99C56.05 21.4567 55.966 21.886 55.798 22.278C55.63 22.67 55.3827 23.006 55.056 23.286C54.7387 23.566 54.342 23.7853 53.866 23.944C53.39 24.0933 52.8487 24.168 52.242 24.168ZM61.8743 24.168C61.2303 24.168 60.6423 24.0607 60.1103 23.846C59.5783 23.6313 59.1257 23.314 58.7523 22.894C58.379 22.4647 58.0897 21.9373 57.8843 21.312C57.679 20.6773 57.5763 19.9447 57.5763 19.114C57.5763 18.2833 57.679 17.5553 57.8843 16.93C58.0897 16.2953 58.379 15.768 58.7523 15.348C59.1257 14.9187 59.5783 14.5967 60.1103 14.382C60.6423 14.1673 61.2303 14.06 61.8743 14.06C62.5183 14.06 63.1063 14.1673 63.6383 14.382C64.1703 14.5967 64.623 14.9187 64.9963 15.348C65.3697 15.768 65.659 16.2953 65.8643 16.93C66.0697 17.5553 66.1723 18.2833 66.1723 19.114C66.1723 19.9447 66.0697 20.6773 65.8643 21.312C65.659 21.9373 65.3697 22.4647 64.9963 22.894C64.623 23.314 64.1703 23.6313 63.6383 23.846C63.1063 24.0607 62.5183 24.168 61.8743 24.168ZM61.8743 22.278C62.5183 22.278 63.0177 22.068 63.3723 21.648C63.7363 21.228 63.9183 20.626 63.9183 19.842V18.386C63.9183 17.602 63.7363 17 63.3723 16.58C63.0177 16.16 62.5183 15.95 61.8743 15.95C61.2303 15.95 60.7263 16.16 60.3623 16.58C60.0077 17 59.8303 17.602 59.8303 18.386V19.842C59.8303 20.626 60.0077 21.228 60.3623 21.648C60.7263 22.068 61.2303 22.278 61.8743 22.278ZM68.0885 24V14.228H74.5705V16.118H70.2165V18.12H73.9265V19.996H70.2165V24H68.0885ZM80.4919 16.118V24H78.3639V16.118H75.7179V14.228H83.1379V16.118H80.4919ZM86.3147 24L84.1027 14.228H86.2027L87.1267 18.918L87.6447 21.634H87.6867L88.3027 18.918L89.3807 14.228H91.7047L92.7967 18.918L93.3987 21.634H93.4407L93.9587 18.918L94.8967 14.228H96.9127L94.6447 24H92.2227L90.9907 18.708L90.5147 16.566H90.4727L89.9827 18.708L88.7507 24H86.3147ZM104.155 24L103.455 21.676H100.193L99.4934 24H97.3374L100.557 14.228H103.189L106.367 24H104.155ZM101.845 16.16H101.775L100.697 19.87H102.937L101.845 16.16ZM109.987 24H107.859V14.228H112.493C112.941 14.228 113.347 14.3027 113.711 14.452C114.075 14.6013 114.383 14.816 114.635 15.096C114.897 15.3667 115.097 15.6933 115.237 16.076C115.377 16.4587 115.447 16.8833 115.447 17.35C115.447 18.0127 115.298 18.5913 114.999 19.086C114.71 19.5807 114.267 19.94 113.669 20.164L115.587 24H113.221L111.513 20.416H109.987V24ZM112.227 18.624C112.545 18.624 112.792 18.5447 112.969 18.386C113.156 18.218 113.249 17.9753 113.249 17.658V17.042C113.249 16.7247 113.156 16.4867 112.969 16.328C112.792 16.16 112.545 16.076 112.227 16.076H109.987V18.624H112.227ZM117.433 24V14.228H124.083V16.118H119.561V18.12H123.439V19.996H119.561V22.11H124.083V24H117.433Z" fill="#FFA600"/>
</svg>
