<svg width="40" height="33" viewBox="0 0 40 33" fill="none" xmlns="http://www.w3.org/2000/svg">
<path d="M16.9109 2.64896C6.6931 3.3921 0.594116 9.19578 0.594116 9.19578V30.3584H39.406V9.19578L16.9109 2.64896Z" fill="#E0A03D"/>
<path d="M19.6412 13.4542C22.0546 13.4542 24.0111 11.8401 24.0111 9.84902C24.0111 7.85793 22.0546 6.24384 19.6412 6.24384C17.2277 6.24384 15.2712 7.85793 15.2712 9.84902C15.2712 11.8401 17.2277 13.4542 19.6412 13.4542Z" fill="#F6E088"/>
<path d="M0.594116 24.4689V30.3584H7.73294C7.73294 27.1058 4.53677 24.4689 0.594116 24.4689Z" fill="#F6E088"/>
<path d="M34.2574 17.1572C34.2574 19.503 36.5625 21.4047 39.406 21.4047V12.9096C36.5625 12.9096 34.2574 14.8113 34.2574 17.1572Z" fill="#F6E088"/>
<path d="M10.5743 21.0782C12.2366 21.0782 13.5842 19.9664 13.5842 18.595C13.5842 17.2236 12.2366 16.1118 10.5743 16.1118C8.91192 16.1118 7.56433 17.2236 7.56433 18.595C7.56433 19.9664 8.91192 21.0782 10.5743 21.0782Z" fill="#F6E088"/>
<path d="M25.0693 21.6008C21.2812 21.6008 18.2103 24.1343 18.2103 27.2595C18.2103 28.4037 18.6223 29.4682 19.33 30.3585H30.8086C31.5163 29.4682 31.9283 28.4036 31.9283 27.2595C31.9283 24.1342 28.8574 21.6008 25.0693 21.6008Z" fill="#F6E088"/>
<path d="M16.987 2.15146L16.8588 2.1608C11.4554 2.55378 7.205 4.35318 4.59078 5.79351C1.755 7.35598 0.209531 8.81346 0.145156 8.87476L0 9.01294V23.9788V30.8486H8.32695H19.0091H31.1295H40V21.8947V12.4195V8.84891L16.987 2.15146ZM1.18813 29.8684V24.981C4.32398 25.2149 6.82867 27.2813 7.11219 29.8684H1.18813ZM19.6603 29.8684C19.0995 29.0788 18.8044 28.1823 18.8044 27.2595C18.8044 24.4095 21.6148 22.0909 25.0693 22.0909C28.5238 22.0909 31.3342 24.4096 31.3342 27.2595C31.3342 28.1823 31.0391 29.0788 30.4783 29.8684H19.6603ZM31.8191 29.8684C32.2811 29.0563 32.5223 28.1685 32.5223 27.2595C32.5223 23.8691 29.1789 21.1107 25.0693 21.1107C20.9597 21.1107 17.6163 23.8691 17.6163 27.2595C17.6163 28.1686 17.8575 29.0563 18.3195 29.8684H8.30437C8.015 26.7405 4.97945 24.2362 1.18813 23.9975V9.6859H7.72281V8.7057H2.02227C2.74164 8.15333 3.84336 7.38151 5.28453 6.59002C7.75664 5.23245 11.7599 3.53913 16.8355 3.14681L35.9362 8.7057H24.4063C23.8048 7.00265 21.897 5.75432 19.6411 5.75432C17.3852 5.75432 15.4773 7.00272 14.8759 8.7057H9.30703V9.6859H14.6825C14.6799 9.74023 14.6774 9.7945 14.6774 9.84935C14.6774 12.1073 16.9041 13.9444 19.6411 13.9444C22.378 13.9444 24.6048 12.1073 24.6048 9.84935C24.6048 9.79457 24.6024 9.74023 24.5997 9.6859H38.8119V12.4449C35.9235 12.691 33.6634 14.7104 33.6634 17.1572C33.6634 19.6041 35.9235 21.6235 38.8119 21.8695V29.8684H31.8191V29.8684ZM23.4166 9.84922C23.4166 11.5667 21.723 12.964 19.6411 12.964C17.5592 12.964 15.8655 11.5668 15.8655 9.84922C15.8655 8.13168 17.5592 6.7344 19.6411 6.7344C21.723 6.73446 23.4166 8.13174 23.4166 9.84922ZM38.8119 20.8828C36.5801 20.642 34.8515 19.063 34.8515 17.1572C34.8515 15.2514 36.5802 13.6725 38.8119 13.4317V20.8828Z" fill="#491E17"/>
<path d="M25.0693 19.1503V20.1305C29.8341 20.1305 33.7105 23.3285 33.7105 27.2595H34.8986C34.8986 22.7881 30.4893 19.1503 25.0693 19.1503Z" fill="#491E17"/>
<path d="M10.5742 15.6216C8.58693 15.6216 6.97021 16.9554 6.97021 18.5949C6.97021 20.2344 8.58693 21.5682 10.5742 21.5682C12.5615 21.5682 14.1782 20.2344 14.1782 18.5949C14.1782 16.9554 12.5615 15.6216 10.5742 15.6216ZM10.5742 20.5879C9.24209 20.5879 8.15834 19.6938 8.15834 18.5948C8.15834 17.4958 9.24209 16.6017 10.5742 16.6017C11.9063 16.6017 12.9901 17.4958 12.9901 18.5948C12.9901 19.6938 11.9064 20.5879 10.5742 20.5879Z" fill="#491E17"/>
</svg>
